<svg xmlns="http://www.w3.org/2000/svg" xmlns:xlink="http://www.w3.org/1999/xlink" width="1024" zoomAndPan="magnify" viewBox="0 0 768 767.999994" height="1024" preserveAspectRatio="xMidYMid meet" version="1.0"><defs><g/><clipPath id="d54336f673"><path d="M 9.9375 0.65625 L 768 0.65625 L 768 768 L 9.9375 768 Z M 9.9375 0.65625 " clip-rule="nonzero"/></clipPath><clipPath id="fd0d6a501c"><path d="M 393.609375 0.65625 C 181.710938 0.65625 9.9375 172.429688 9.9375 384.328125 C 9.9375 596.222656 181.710938 768 393.609375 768 C 605.503906 768 777.28125 596.222656 777.28125 384.328125 C 777.28125 172.429688 605.503906 0.65625 393.609375 0.65625 Z M 393.609375 0.65625 " clip-rule="nonzero"/></clipPath></defs><g clip-path="url(#d54336f673)"><g clip-path="url(#fd0d6a501c)"><path fill="#01012b" d="M 9.9375 0.65625 L 777.28125 0.65625 L 777.28125 768 L 9.9375 768 Z M 9.9375 0.65625 " fill-opacity="1" fill-rule="nonzero"/></g></g><g fill="#ff2a6d" fill-opacity="1"><g transform="translate(28.790342, 574.889483)"><g><path d="M 95.28125 -47.640625 L 95.28125 -95.28125 L 47.640625 -95.28125 L 47.640625 -142.921875 L 0 -142.921875 L 0 -285.84375 L 47.640625 -285.84375 L 47.640625 -333.484375 L 95.28125 -333.484375 L 95.28125 -381.125 L 333.484375 -381.125 L 333.484375 -333.484375 L 142.921875 -333.484375 L 142.921875 -285.84375 L 95.28125 -285.84375 L 95.28125 -142.921875 L 142.921875 -142.921875 L 142.921875 -95.28125 L 238.203125 -95.28125 L 238.203125 -190.5625 L 190.5625 -190.5625 L 190.5625 -238.203125 L 333.484375 -238.203125 L 333.484375 -47.640625 Z M 95.28125 -47.640625 "/></g></g></g><g fill="#ff2a6d" fill-opacity="1"><g transform="translate(409.913284, 574.889483)"><g><path d="M 0 -47.640625 L 0 -381.125 L 285.84375 -381.125 L 285.84375 -333.484375 L 333.484375 -333.484375 L 333.484375 -190.5625 L 238.203125 -190.5625 L 238.203125 -142.921875 L 285.84375 -142.921875 L 285.84375 -95.28125 L 333.484375 -95.28125 L 333.484375 -47.640625 L 190.5625 -47.640625 L 190.5625 -95.28125 L 142.921875 -95.28125 L 142.921875 -142.921875 L 95.28125 -142.921875 L 95.28125 -47.640625 Z M 95.28125 -190.5625 L 190.5625 -190.5625 L 190.5625 -238.203125 L 238.203125 -238.203125 L 238.203125 -333.484375 L 95.28125 -333.484375 Z M 95.28125 -190.5625 "/></g></g></g><g fill="#d1f7ff" fill-opacity="1"><g transform="translate(28.016139, 583.662183)"><g><path d="M 95.46875 -47.734375 L 95.46875 -95.46875 L 47.734375 -95.46875 L 47.734375 -143.203125 L 0 -143.203125 L 0 -286.421875 L 47.734375 -286.421875 L 47.734375 -334.15625 L 95.46875 -334.15625 L 95.46875 -381.890625 L 334.15625 -381.890625 L 334.15625 -334.15625 L 143.203125 -334.15625 L 143.203125 -286.421875 L 95.46875 -286.421875 L 95.46875 -143.203125 L 143.203125 -143.203125 L 143.203125 -95.46875 L 238.6875 -95.46875 L 238.6875 -190.9375 L 190.9375 -190.9375 L 190.9375 -238.6875 L 334.15625 -238.6875 L 334.15625 -47.734375 Z M 95.46875 -47.734375 "/></g></g></g><g fill="#d1f7ff" fill-opacity="1"><g transform="translate(409.906806, 583.662183)"><g><path d="M 0 -47.734375 L 0 -381.890625 L 286.421875 -381.890625 L 286.421875 -334.15625 L 334.15625 -334.15625 L 334.15625 -190.9375 L 238.6875 -190.9375 L 238.6875 -143.203125 L 286.421875 -143.203125 L 286.421875 -95.46875 L 334.15625 -95.46875 L 334.15625 -47.734375 L 190.9375 -47.734375 L 190.9375 -95.46875 L 143.203125 -95.46875 L 143.203125 -143.203125 L 95.46875 -143.203125 L 95.46875 -47.734375 Z M 95.46875 -190.9375 L 190.9375 -190.9375 L 190.9375 -238.6875 L 238.6875 -238.6875 L 238.6875 -334.15625 L 95.46875 -334.15625 Z M 95.46875 -190.9375 "/></g></g></g></svg>